<svg width="400" height="200" xmlns="http://www.w3.org/2000/svg">
  <defs>
    <style>
      .matrix-text {
        font-family: 'Courier New', monospace;
        font-size: 12px;
        fill: #00ff00;
        opacity: 0.8;
      }
      .matrix-text-bright {
        font-family: 'Courier New', monospace;
        font-size: 12px;
        fill: #ffffff;
        opacity: 1;
      }
      .matrix-text-fade {
        font-family: 'Courier New', monospace;
        font-size: 12px;
        fill: #004400;
        opacity: 0.3;
      }
    </style>
  </defs>
  
  <!-- Matrix Code Rain Effect -->
  <g>
    <!-- Column 1 -->
    <text x="20" y="20" class="matrix-text-bright">01001000</text>
    <text x="20" y="40" class="matrix-text">01100101</text>
    <text x="20" y="60" class="matrix-text">01101100</text>
    <text x="20" y="80" class="matrix-text">01101100</text>
    <text x="20" y="100" class="matrix-text-fade">01101111</text>
    <text x="20" y="120" class="matrix-text-fade">00100000</text>
    <text x="20" y="140" class="matrix-text-fade">01010111</text>
    <text x="20" y="160" class="matrix-text-fade">01101111</text>
    <text x="20" y="180" class="matrix-text-fade">01110010</text>
    
    <!-- Column 2 -->
    <text x="60" y="20" class="matrix-text-fade">01001101</text>
    <text x="60" y="40" class="matrix-text-bright">01100001</text>
    <text x="60" y="60" class="matrix-text">01110100</text>
    <text x="60" y="80" class="matrix-text">01110010</text>
    <text x="60" y="100" class="matrix-text">01101001</text>
    <text x="60" y="120" class="matrix-text-fade">01111000</text>
    <text x="60" y="140" class="matrix-text-fade">00100000</text>
    <text x="60" y="160" class="matrix-text-fade">01001000</text>
    <text x="60" y="180" class="matrix-text-fade">01100101</text>
    
    <!-- Column 3 -->
    <text x="100" y="20" class="matrix-text-fade">01000001</text>
    <text x="100" y="40" class="matrix-text-fade">01100011</text>
    <text x="100" y="60" class="matrix-text-bright">01110100</text>
    <text x="100" y="80" class="matrix-text">01101001</text>
    <text x="100" y="100" class="matrix-text">01110110</text>
    <text x="100" y="120" class="matrix-text">01100101</text>
    <text x="100" y="140" class="matrix-text-fade">00100000</text>
    <text x="100" y="160" class="matrix-text-fade">01000001</text>
    <text x="100" y="180" class="matrix-text-fade">01100011</text>
    
    <!-- Column 4 -->
    <text x="140" y="20" class="matrix-text-fade">01000001</text>
    <text x="140" y="40" class="matrix-text-fade">01100011</text>
    <text x="140" y="60" class="matrix-text-fade">01110100</text>
    <text x="140" y="80" class="matrix-text-bright">01101001</text>
    <text x="140" y="100" class="matrix-text">01110110</text>
    <text x="140" y="120" class="matrix-text">01100101</text>
    <text x="140" y="140" class="matrix-text">00100000</text>
    <text x="140" y="160" class="matrix-text-fade">01000001</text>
    <text x="140" y="180" class="matrix-text-fade">01100011</text>
    
    <!-- Column 5 -->
    <text x="180" y="20" class="matrix-text-fade">01000001</text>
    <text x="180" y="40" class="matrix-text-fade">01100011</text>
    <text x="180" y="60" class="matrix-text-fade">01110100</text>
    <text x="180" y="80" class="matrix-text-fade">01101001</text>
    <text x="180" y="100" class="matrix-text-bright">01110110</text>
    <text x="180" y="120" class="matrix-text">01100101</text>
    <text x="180" y="140" class="matrix-text">00100000</text>
    <text x="180" y="160" class="matrix-text">01000001</text>
    <text x="180" y="180" class="matrix-text-fade">01100011</text>
    
    <!-- Column 6 -->
    <text x="220" y="20" class="matrix-text-fade">01000001</text>
    <text x="220" y="40" class="matrix-text-fade">01100011</text>
    <text x="220" y="60" class="matrix-text-fade">01110100</text>
    <text x="220" y="80" class="matrix-text-fade">01101001</text>
    <text x="220" y="100" class="matrix-text-fade">01110110</text>
    <text x="220" y="120" class="matrix-text-bright">01100101</text>
    <text x="220" y="140" class="matrix-text">00100000</text>
    <text x="220" y="160" class="matrix-text">01000001</text>
    <text x="220" y="180" class="matrix-text">01100011</text>
    
    <!-- Column 7 -->
    <text x="260" y="20" class="matrix-text-fade">01000001</text>
    <text x="260" y="40" class="matrix-text-fade">01100011</text>
    <text x="260" y="60" class="matrix-text-fade">01110100</text>
    <text x="260" y="80" class="matrix-text-fade">01101001</text>
    <text x="260" y="100" class="matrix-text-fade">01110110</text>
    <text x="260" y="120" class="matrix-text-fade">01100101</text>
    <text x="260" y="140" class="matrix-text-bright">00100000</text>
    <text x="260" y="160" class="matrix-text">01000001</text>
    <text x="260" y="180" class="matrix-text">01100011</text>
    
    <!-- Column 8 -->
    <text x="300" y="20" class="matrix-text-fade">01000001</text>
    <text x="300" y="40" class="matrix-text-fade">01100011</text>
    <text x="300" y="60" class="matrix-text-fade">01110100</text>
    <text x="300" y="80" class="matrix-text-fade">01101001</text>
    <text x="300" y="100" class="matrix-text-fade">01110110</text>
    <text x="300" y="120" class="matrix-text-fade">01100101</text>
    <text x="300" y="140" class="matrix-text-fade">00100000</text>
    <text x="300" y="160" class="matrix-text-bright">01000001</text>
    <text x="300" y="180" class="matrix-text">01100011</text>
    
    <!-- Column 9 -->
    <text x="340" y="20" class="matrix-text-fade">01000001</text>
    <text x="340" y="40" class="matrix-text-fade">01100011</text>
    <text x="340" y="60" class="matrix-text-fade">01110100</text>
    <text x="340" y="80" class="matrix-text-fade">01101001</text>
    <text x="340" y="100" class="matrix-text-fade">01110110</text>
    <text x="340" y="120" class="matrix-text-fade">01100101</text>
    <text x="340" y="140" class="matrix-text-fade">00100000</text>
    <text x="340" y="160" class="matrix-text-fade">01000001</text>
    <text x="340" y="180" class="matrix-text-bright">01100011</text>
  </g>
</svg>
